# xmcd
#
# Track frame offsets:
#	150
#	23151
#	36822
#	57417
#	71037
#	84956
#	98953
#	119496
#	130992
#	147099
#	165180
#	181286
#
# Disc length: 2640 seconds
#
# Revision: 1
# Processed by: cddbd v1.5.2PL0 Copyright (c) Steve Scherf et al.
# Submitted via: audiograbber 1.83.01
#
DISCID=9e0a4e0c
DTITLE=Thrusday Night Fishing Club - When Cars Had Faces
DYEAR=1900
DGENRE=Country
TTITLE0=Isn't Love Something
TTITLE1=Favorite New Thing
TTITLE2=Trusted Man
TTITLE3=The Middle
TTITLE4=She Can Turn Texan
TTITLE5=Where Mr. Nelson Stayed
TTITLE6=Gets Me Where I Need To Go
TTITLE7=The F-Word
TTITLE8=Back On The Good Road
TTITLE9=When Cars Had Faces
TTITLE10=New Water
TTITLE11=I Dreamed I Went Fishing With Warren Zevon
EXTD=
EXTT0=
EXTT1=
EXTT2=
EXTT3=
EXTT4=
EXTT5=
EXTT6=
EXTT7=
EXTT8=
EXTT9=
EXTT10=
EXTT11=
PLAYORDER=
